<svg
    xmlns="http://www.w3.org/2000/svg"
    viewBox="0 0 24 24"
    width="24"
    height="24"
    fill="currentColor"
>
    <path d="M10.585 14.585a2 2 0 010-2.828L12 10.585l1.414 1.414-1.415 1.414a2 2 0 01-2.828 0zm2.828-4.243L12 9.414l-1.414-1.414L10.585 8 12 9.414l1.414-1.414zm-1.414 8.586a2 2 0 010-2.828l1.414-1.414L14 16.586l-1.414 1.414a2 2 0 01-2.828 0zm2.828-4.243L12 14.414l-1.414-1.414L10.585 12l1.414 1.414 1.414-1.414zM17 6h-1v3h1V6zm-3 0h-1v3h1V6zm-3 0h-1v3h1V6zm-3 0H8v3h1V6zm-3 0H4v3h1V6zm10 12h-1v-3h1v3zm-3 0h-1v-3h1v3zm-3 0h-1v-3h1v3zm-3 0H8v-3h1v3zm-3 0H4v-3h1v3zm14-10h-1v3h1V8zm-3 0h-1v3h1V8zm-3 0h-1v3h1V8z"/>
</svg>
