<svg xmlns="http://www.w3.org/2000/svg" width="1920" height="1080" viewBox="0 0 1920 1080">
  <defs>
    <radialGradient id="bg" cx="50%" cy="50%" r="60%">
      <stop offset="0%" style="stop-color:#667eea;stop-opacity:1" />
      <stop offset="100%" style="stop-color:#764ba2;stop-opacity:1" />
    </radialGradient>
  </defs>
  <rect width="1920" height="1080" fill="url(#bg)"/>
  <circle cx="960" cy="540" r="300" fill="none" stroke="rgba(255,255,255,0.3)" stroke-width="4"/>
  <circle cx="960" cy="540" r="250" fill="none" stroke="rgba(255,255,255,0.2)" stroke-width="2"/>
  <circle cx="960" cy="540" r="200" fill="none" stroke="rgba(255,255,255,0.1)" stroke-width="2"/>
  
  <!-- Hand icons positioned in a circle -->
  <g fill="rgba(255,255,255,0.4)" transform="translate(960,540)">
    <g transform="rotate(0) translate(0,-180)">
      <path d="M-15,-10 Q-15,-20 -5,-20 Q5,-20 15,-10 L15,10 Q15,20 5,20 L-5,20 Q-15,20 -15,10 Z"/>
    </g>
    <g transform="rotate(72) translate(0,-180)">
      <path d="M-15,-10 Q-15,-20 -5,-20 Q5,-20 15,-10 L15,10 Q15,20 5,20 L-5,20 Q-15,20 -15,10 Z"/>
    </g>
    <g transform="rotate(144) translate(0,-180)">
      <path d="M-15,-10 Q-15,-20 -5,-20 Q5,-20 15,-10 L15,10 Q15,20 5,20 L-5,20 Q-15,20 -15,10 Z"/>
    </g>
    <g transform="rotate(216) translate(0,-180)">
      <path d="M-15,-10 Q-15,-20 -5,-20 Q5,-20 15,-10 L15,10 Q15,20 5,20 L-5,20 Q-15,20 -15,10 Z"/>
    </g>
    <g transform="rotate(288) translate(0,-180)">
      <path d="M-15,-10 Q-15,-20 -5,-20 Q5,-20 15,-10 L15,10 Q15,20 5,20 L-5,20 Q-15,20 -15,10 Z"/>
    </g>
  </g>
  
  <text x="960" y="720" text-anchor="middle" dominant-baseline="middle" fill="rgba(255,255,255,0.6)" font-family="Arial, sans-serif" font-size="32" font-weight="bold">Community Unity</text>
  <text x="960" y="760" text-anchor="middle" dominant-baseline="middle" fill="rgba(255,255,255,0.4)" font-family="Arial, sans-serif" font-size="18">Placeholder - Replace with community-hands.jpg</text>
</svg>